<svg width="16" height="16" viewBox="0 0 16 16" fill="none" xmlns="http://www.w3.org/2000/svg">
<g id="Weather icons" clip-path="url(#clip0_117_7203)">
<path id="Vector" d="M4.50675 3.2267L3.30675 2.03337L2.36675 2.97337L3.56008 4.1667L4.50675 3.2267ZM2.66675 7.00003H0.666748V8.33337H2.66675V7.00003ZM8.66675 0.366699H7.33341V2.33337H8.66675V0.366699ZM13.6334 2.97337L12.6934 2.03337L11.5001 3.2267L12.4401 4.1667L13.6334 2.97337ZM11.4934 12.1067L12.6867 13.3067L13.6267 12.3667L12.4267 11.1734L11.4934 12.1067ZM13.3334 7.00003V8.33337H15.3334V7.00003H13.3334ZM8.00008 3.6667C5.79341 3.6667 4.00008 5.46003 4.00008 7.6667C4.00008 9.87337 5.79341 11.6667 8.00008 11.6667C10.2067 11.6667 12.0001 9.87337 12.0001 7.6667C12.0001 5.46003 10.2067 3.6667 8.00008 3.6667ZM7.33341 14.9667H8.66675V13H7.33341V14.9667ZM2.36675 12.36L3.30675 13.3L4.50008 12.1L3.56008 11.16L2.36675 12.36Z" fill="#666666" fill-opacity="0.5"/>
</g>
<defs>
<clipPath id="clip0_117_7203">
<rect width="16" height="16" fill="white"/>
</clipPath>
</defs>
</svg>
